<?xml version="1.0" encoding="UTF-8"?>
<svg id="a" xmlns="http://www.w3.org/2000/svg" viewBox="0 0 148 41">
  <defs>
    <style>
      .cls-1 {
        fill: #dc281e;
      }

      .cls-1, .cls-2 {
        stroke-width: 0px;
      }

      .cls-2 {
        fill: #1e233a;
      }
    </style>
  </defs>
  <circle class="cls-1" cx="4.56" cy="36.12" r="4.38"/>
  <circle class="cls-1" cx="124.56" cy="20.41" r="4.68"/>
  <g>
    <path class="cls-2" d="m104.27,39.98c2.57-.46,6.09-1.61,8.27-4.49,2.99-3.96,2.11-10.3-1.94-13.86-2.11-1.86-4.82-2.93-7.45-3.96-2.41-.95-4.91-1.94-6.98-3.54-.92-.71-2.02-1.89-2.05-3.5-.04-2.38,2.48-3.84,5-4.06,3.61-.31,7.4.9,10.16,3.23.15-.18.3-.37.45-.55l.17-.21,3.03-4.65c-3.47-2.52-7.98-3.9-12.74-3.9h-.32c-3.16.04-6.01.81-8.25,2.21-2.6,1.63-4.31,4.21-4.69,7.07-.36,2.69.5,5.31,2.42,7.39,1.96,2.12,4.56,3.46,7.09,4.58.82.36,1.69.71,2.54,1.04h.02c1.88.75,3.82,1.51,5.46,2.61,1.6,1.07,3.34,2.89,2.54,5.51-.48,1.58-2.02,2.71-4.23,3.11-4.07.73-8.39-.4-11.57-3.02l-3.56,5.33c4.63,3.32,10.85,4.69,16.63,3.66h0Z"/>
    <rect class="cls-2" x="120.38" y="32.35" width="27.45" height="7.53"/>
    <rect class="cls-2" x="120.38" y="1.2" width="27.45" height="7.53"/>
    <rect class="cls-2" x="72.81" y="1.2" width="8.14" height="38.68"/>
    <polygon class="cls-2" points="50.42 1.26 46.13 10.14 31.93 39.88 40.43 39.88 50.42 18.96 50.48 19.08 60.41 39.88 68.91 39.88 54.71 10.14 50.42 1.26"/>
    <path class="cls-2" d="m19.41,24.46c8.76-1.8,9.44-8.8,9.44-10.91,0-8.31-5.29-12.35-16.16-12.35H.78l2.9,6.08h8.86c3.53,0,5.94.7,7.36,2.12.95.96,1.43,2.26,1.41,3.86-.03,2.5-1.4,4.2-4.08,5.07-2.2.71-4.86.69-6.19.68l-.13,5.81,9.98,15.06h8.18l-9.94-15.36s.28-.06.28-.06Z"/>
  </g>
</svg>